<svg xmlns="http://www.w3.org/2000/svg" xmlns:xlink="http://www.w3.org/1999/xlink" viewBox="0 0 376.19 167.65"><defs><style>.cls-1{fill:none;}.cls-2{clip-path:url(#clip-path);}.cls-3{fill:url(#Degradado_sin_nombre);}.cls-4{clip-path:url(#clip-path-2);}.cls-5{fill:url(#Degradado_sin_nombre_2);}.cls-6{fill:#1d1d1b;}</style><clipPath id="clip-path" transform="translate(0 0.55)"><path class="cls-1" d="M204.9,82.92,194.65,68.54l-6.56-9.15.6,0H223a35.11,35.11,0,0,1-4.45,10.22A43,43,0,0,1,204.92,83ZM151.59,77.8a41.19,41.19,0,0,1-8.89-13.23,42.91,42.91,0,0,1-3.23-16.74,42.85,42.85,0,0,1,3.23-16.72,41.08,41.08,0,0,1,8.89-13.23,39.72,39.72,0,0,1,5.76-4.73V82.52a39.65,39.65,0,0,1-5.76-4.72M162.47,3.56a47.75,47.75,0,0,0-15.24,9.93,46.33,46.33,0,0,0-10.31,15.19,48.49,48.49,0,0,0-3.75,19.15A48.59,48.59,0,0,0,136.92,67a46.29,46.29,0,0,0,10.31,15.18,47.84,47.84,0,0,0,15.24,9.94,48.93,48.93,0,0,0,18.66,3.55,50.8,50.8,0,0,0,18.2-3.24,52.55,52.55,0,0,0,15-8.72,46.6,46.6,0,0,0,10.74-12.94,42.37,42.37,0,0,0,5.2-15.85l.18-1.49H175.74l10.78,14.62,6.08,8.58,6.6,9.29v0c-.87.38-1.74.75-2.64,1.09a43.78,43.78,0,0,1-15.44,2.71,41.85,41.85,0,0,1-16.3-3.18c-1-.4-1.87-.83-2.77-1.28l1.6.76V9.64h0c.39-.18.77-.36,1.17-.52a42.06,42.06,0,0,1,16.3-3.17,43.47,43.47,0,0,1,19.74,4.53,45.53,45.53,0,0,1,15.64,13.16l.39.52h7.4l-1.23-2a42.27,42.27,0,0,0-7.71-9.28,48.13,48.13,0,0,0-10.06-7,51,51,0,0,0-11.65-4.37A53.14,53.14,0,0,0,181.13,0a48.93,48.93,0,0,0-18.66,3.56"/></clipPath><linearGradient id="Degradado_sin_nombre" x1="-219.68" y1="409.98" x2="-218.68" y2="409.98" gradientTransform="matrix(0, 94.32, 94.32, 0, -38489.06, 20722.25)" gradientUnits="userSpaceOnUse"><stop offset="0" stop-color="#69c5d7"/><stop offset="1" stop-color="#0099b4"/></linearGradient><clipPath id="clip-path-2" transform="translate(0 0.55)"><path class="cls-1" d="M188.82,6.57c.61.1,1.22.22,1.82.35h0L191,7h0q1.08.24,2.16.54h0l.15,0h0c.76.21,1.5.44,2.24.69h0a42.33,42.33,0,0,1,4.47,1.83,20.64,20.64,0,0,1,7.46,8.67,26.1,26.1,0,0,1,2.61,11.1,27.82,27.82,0,0,1-1.62,9.56,25.59,25.59,0,0,1-5.61,8.65,22.69,22.69,0,0,1-4.13,2.76,20.52,20.52,0,0,1-4.34,1.66,26.8,26.8,0,0,1-4.8.75c-1.73.12-3.61.18-5.74.18h22a25.76,25.76,0,0,0,4.6-4.68,28.75,28.75,0,0,0,4.7-9.55,32.39,32.39,0,0,0,1.26-9.46,30.56,30.56,0,0,0-.38-4.68h0l0,0c-.14-.89-.33-1.77-.55-2.64v0a45,45,0,0,0-14.61-11.88,42,42,0,0,0-12.05-3.91Z"/></clipPath><linearGradient id="Degradado_sin_nombre_2" x1="-219.68" y1="409.98" x2="-218.68" y2="409.98" gradientTransform="matrix(0, -107.33, -107.33, 0, 44205.07, -23532.52)" gradientUnits="userSpaceOnUse"><stop offset="0" stop-color="#acdbe7"/><stop offset="1" stop-color="#0099b4"/></linearGradient></defs><g id="Capa_2" data-name="Capa 2"><g id="Capa_1-2" data-name="Capa 1"><g class="cls-2"><rect class="cls-3" x="133.71" y="-1.08" width="96.22" height="97.84" transform="translate(132.96 229.93) rotate(-89.68)"/></g><g class="cls-4"><rect class="cls-5" x="176.72" y="13.6" width="46.98" height="32.78" transform="translate(169.52 230.64) rotate(-89.8)"/></g><path class="cls-6" d="M18.91,143.38,13,134.92a10.48,10.48,0,0,1-1.12,0H5.37v8.42H0v-28.9H11.89c7.6,0,12.31,3.88,12.31,10.28A9.24,9.24,0,0,1,18,133.89l6.65,9.49ZM11.64,119H5.37v11.52h6.27c4.71,0,7.15-2.14,7.15-5.78S16.35,119,11.64,119" transform="translate(0 0.55)"/><polygon class="cls-6" points="48.83 140.07 48.83 143.93 30.25 143.93 30.25 119.16 48.33 119.16 48.33 123.02 34.85 123.02 34.85 129.46 46.81 129.46 46.81 133.24 34.85 133.24 34.85 140.07 48.83 140.07"/><path class="cls-6" d="M76.51,136.66c0,4.25-3.33,6.73-9.7,6.73H54.49V118.61H66.1c6,0,9.13,2.51,9.13,6.44a5.93,5.93,0,0,1-3.18,5.45,6.11,6.11,0,0,1,4.46,6.16M59.09,122.22v6.83h6.52c3.18,0,5-1.13,5-3.4s-1.81-3.43-5-3.43Zm12.78,14c0-2.48-1.88-3.57-5.34-3.57H59.09v7.15h7.44c3.46,0,5.34-1.1,5.34-3.58" transform="translate(0 0.55)"/><polygon class="cls-6" points="100.54 140.07 100.54 143.93 81.96 143.93 81.96 119.16 100.04 119.16 100.04 123.02 86.56 123.02 86.56 129.46 98.52 129.46 98.52 133.24 86.56 133.24 86.56 140.07 100.54 140.07"/><path class="cls-6" d="M104.32,131c0-7.4,5.67-12.74,13.28-12.74a12.55,12.55,0,0,1,9.8,4.14l-3,2.79a8.74,8.74,0,0,0-6.62-2.9,8.71,8.71,0,1,0,0,17.41,8.63,8.63,0,0,0,6.62-2.93l3,2.83a12.57,12.57,0,0,1-9.84,4.14c-7.57,0-13.24-5.35-13.24-12.74" transform="translate(0 0.55)"/><path class="cls-6" d="M147.89,137.65H135.51l-2.45,5.74h-4.74l11.15-24.78H144l11.18,24.78h-4.81ZM146.37,134l-4.67-10.83L137.06,134Z" transform="translate(0 0.55)"/><path class="cls-6" d="M189.45,128.6h5.08v11.52a18.26,18.26,0,0,1-11.31,3.68c-9,0-15.57-6.24-15.57-14.87s6.61-14.86,15.65-14.86c4.83,0,8.88,1.61,11.6,4.71l-3.38,3.3a10.72,10.72,0,0,0-8-3.3c-6.15,0-10.49,4.17-10.49,10.15s4.34,10.16,10.45,10.16a11.67,11.67,0,0,0,5.94-1.48Z" transform="translate(0 0.55)"/><rect class="cls-6" x="201.66" y="119.16" width="4.6" height="24.77"/><polygon class="cls-6" points="213.48 119.16 218.08 119.16 218.08 140.04 231.03 140.04 231.03 143.93 213.48 143.93 213.48 119.16"/><polygon class="cls-6" points="246.06 115.03 251.43 115.03 251.43 139.39 266.54 139.39 266.54 143.93 246.06 143.93 246.06 115.03"/><rect class="cls-6" x="270.86" y="119.16" width="4.6" height="24.77"/><path class="cls-6" d="M298.75,137.65H286.36l-2.44,5.74h-4.74l11.15-24.78h4.53L306,143.39h-4.81ZM297.23,134l-4.67-10.83L287.92,134Z" transform="translate(0 0.55)"/><path class="cls-6" d="M325.93,143.39l-5.06-7.26a7.71,7.71,0,0,1-1,0h-5.59v7.22h-4.6V118.61h10.19c6.52,0,10.55,3.33,10.55,8.81a7.92,7.92,0,0,1-5.27,7.83l5.7,8.14ZM319.7,122.5h-5.38v9.88h5.38c4,0,6.12-1.84,6.12-5s-2.08-4.92-6.12-4.92" transform="translate(0 0.55)"/><polygon class="cls-6" points="340.8 123.05 332.58 123.05 332.58 119.16 353.61 119.16 353.61 123.05 345.4 123.05 345.4 143.93 340.8 143.93 340.8 123.05"/><polygon class="cls-6" points="376.19 140.07 376.19 143.93 357.61 143.93 357.61 119.16 375.69 119.16 375.69 123.02 362.21 123.02 362.21 129.46 374.17 129.46 374.17 133.24 362.21 133.24 362.21 140.07 376.19 140.07"/><path class="cls-6" d="M54.49,159.78a7.24,7.24,0,0,1,7.59-7.32,7,7,0,0,1,5.44,2.23L66.19,156a5.34,5.34,0,0,0-4-1.69,5.5,5.5,0,1,0,0,11,5.33,5.33,0,0,0,4-1.72l1.33,1.29a7.11,7.11,0,0,1-5.46,2.25,7.24,7.24,0,0,1-7.57-7.32" transform="translate(0 0.55)"/><polygon class="cls-6" points="81.14 165.7 81.14 167.48 70.75 167.48 70.75 153.17 80.85 153.17 80.85 154.95 72.79 154.95 72.79 159.34 79.97 159.34 79.97 161.08 72.79 161.08 72.79 165.7 81.14 165.7"/><polygon class="cls-6" points="97.07 153.17 97.07 167.48 95.39 167.48 86.8 156.81 86.8 167.48 84.75 167.48 84.75 153.17 86.43 153.17 95.02 163.84 95.02 153.17 97.07 153.17"/><polygon class="cls-6" points="104.51 154.95 99.6 154.95 99.6 153.17 111.44 153.17 111.44 154.95 106.53 154.95 106.53 167.48 104.51 167.48 104.51 154.95"/><path class="cls-6" d="M123.55,166.94l-3.09-4.4c-.29,0-.59,0-.9,0H116v4.36h-2V152.62h5.58c3.72,0,6,1.88,6,5a4.51,4.51,0,0,1-3.15,4.52l3.4,4.81Zm-.06-9.33c0-2-1.37-3.21-4-3.21H116v6.44h3.48c2.62,0,4-1.18,4-3.23" transform="translate(0 0.55)"/><path class="cls-6" d="M128,159.78a7.62,7.62,0,1,1,7.63,7.32,7.28,7.28,0,0,1-7.63-7.32m13.17,0a5.56,5.56,0,1,0-5.54,5.5,5.37,5.37,0,0,0,5.54-5.5" transform="translate(0 0.55)"/><path class="cls-6" d="M152.44,152.62h6c4.61,0,7.73,2.91,7.73,7.16s-3.12,7.16-7.73,7.16h-6Zm5.91,12.54c3.54,0,5.81-2.17,5.81-5.38s-2.27-5.38-5.81-5.38h-3.86v10.76Z" transform="translate(0 0.55)"/><polygon class="cls-6" points="180.03 165.7 180.03 167.48 169.64 167.48 169.64 153.17 179.74 153.17 179.74 154.95 171.68 154.95 171.68 159.34 178.86 159.34 178.86 161.08 171.68 161.08 171.68 165.7 180.03 165.7"/><path class="cls-6" d="M201,157.61c0,3.11-2.25,5-6,5H191.5v4.34h-2.05V152.62H195c3.72,0,6,1.88,6,5m-2,0c0-2-1.37-3.21-4-3.21H191.5v6.42H195c2.62,0,4-1.16,4-3.21" transform="translate(0 0.55)"/><path class="cls-6" d="M203.21,165.3l.76-1.59a7.35,7.35,0,0,0,4.72,1.65c2.48,0,3.54-1,3.54-2.21,0-3.49-8.67-1.29-8.67-6.6,0-2.21,1.72-4.09,5.48-4.09a8.38,8.38,0,0,1,4.6,1.27l-.67,1.63A7.47,7.47,0,0,0,209,154.2c-2.43,0-3.47,1-3.47,2.27,0,3.49,8.67,1.31,8.67,6.56,0,2.19-1.76,4.07-5.55,4.07a8.54,8.54,0,0,1-5.48-1.8" transform="translate(0 0.55)"/><rect class="cls-6" x="217.53" y="153.17" width="2.05" height="14.32"/><path class="cls-6" d="M223,159.78a7.24,7.24,0,0,1,7.59-7.32,7,7,0,0,1,5.43,2.23L234.71,156a5.34,5.34,0,0,0-4-1.69,5.5,5.5,0,1,0,0,11,5.33,5.33,0,0,0,4-1.72l1.32,1.29a7.1,7.1,0,0,1-5.46,2.25,7.23,7.23,0,0,1-7.56-7.32" transform="translate(0 0.55)"/><path class="cls-6" d="M237.79,159.78a7.62,7.62,0,1,1,7.63,7.32,7.28,7.28,0,0,1-7.63-7.32m13.17,0a5.56,5.56,0,1,0-5.54,5.5,5.37,5.37,0,0,0,5.54-5.5" transform="translate(0 0.55)"/><polygon class="cls-6" points="256.44 153.17 258.49 153.17 258.49 165.7 266.24 165.7 266.24 167.48 256.44 167.48 256.44 153.17"/><path class="cls-6" d="M267.47,159.78a7.61,7.61,0,1,1,7.62,7.32,7.27,7.27,0,0,1-7.62-7.32m13.16,0a5.56,5.56,0,1,0-5.54,5.5,5.37,5.37,0,0,0,5.54-5.5" transform="translate(0 0.55)"/><path class="cls-6" d="M296,159.7h2v5.58a8.47,8.47,0,0,1-5.42,1.82c-4.4,0-7.63-3.09-7.63-7.32s3.23-7.32,7.67-7.32a7.15,7.15,0,0,1,5.5,2.21l-1.27,1.26a5.7,5.7,0,0,0-4.15-1.65,5.5,5.5,0,1,0,0,11,6.07,6.07,0,0,0,3.35-.92Z" transform="translate(0 0.55)"/><path class="cls-6" d="M304.48,148.8H307l-3.43,2.66H301.7Zm-2.27,3.82h2v14.32h-2Z" transform="translate(0 0.55)"/><path class="cls-6" d="M318,163.36h-7.6l-1.58,3.58h-2.1l6.48-14.32h2l6.51,14.32h-2.15Zm-.71-1.64-3.09-7-3.09,7Z" transform="translate(0 0.55)"/></g></g></svg>