<?xml version="1.0" standalone="no"?>
<!DOCTYPE svg PUBLIC "-//W3C//DTD SVG 20010904//EN"
 "http://www.w3.org/TR/2001/REC-SVG-20010904/DTD/svg10.dtd">
<svg version="1.0" xmlns="http://www.w3.org/2000/svg"
 width="700.000000pt" height="700.000000pt" viewBox="0 0 700.000000 700.000000"
 preserveAspectRatio="xMidYMid meet">
<metadata>
Created by potrace 1.14, written by Peter Selinger 2001-2017
</metadata>
<g transform="translate(0.000000,700.000000) scale(0.100000,-0.100000)"
fill="#000000" stroke="none">
<path d="M3030 6979 c-294 -26 -624 -108 -930 -232 -919 -371 -1613 -1119
-1924 -2072 -64 -197 -125 -465 -142 -620 -3 -27 -7 -59 -9 -70 -9 -46 -6
-864 4 -930 20 -136 23 -151 42 -250 71 -360 219 -754 394 -1050 25 -42 45
-78 45 -80 0 -8 133 -199 194 -280 134 -177 324 -377 491 -515 50 -41 92 -77
95 -81 10 -11 217 -156 280 -195 304 -191 645 -337 978 -419 115 -29 276 -61
337 -68 102 -13 152 -19 175 -24 14 -3 147 -6 295 -8 243 -3 397 3 495 19 19
3 60 8 90 11 30 4 77 11 105 16 27 6 64 13 80 16 90 15 291 68 422 111 595
196 1131 539 1533 978 121 133 190 220 292 369 123 179 216 348 327 597 52
116 157 462 175 573 2 17 11 73 20 125 9 53 19 123 22 155 4 33 7 64 8 69 0 6
-346 9 -871 9 l-872 0 118 116 c138 135 175 180 263 316 83 127 125 206 176
325 65 153 128 366 148 500 2 19 9 56 14 81 36 183 29 554 -15 779 -3 14 -7
36 -10 50 -2 14 -7 39 -11 55 -5 27 -1 24 35 -25 23 -30 48 -60 57 -66 10 -8
95 -12 270 -12 l254 -1 -11 22 c-27 52 -138 229 -193 307 -343 484 -832 873
-1410 1120 -227 97 -484 176 -731 226 -11 2 -33 7 -50 10 -16 4 -39 8 -50 9
-11 2 -40 6 -65 10 -128 20 -170 23 -340 25 -102 0 -261 2 -355 3 -93 1 -204
-1 -245 -4z m725 -423 c22 -4 78 -11 125 -17 47 -6 101 -15 120 -19 19 -5 49
-12 66 -14 155 -27 450 -123 623 -203 188 -86 397 -293 529 -524 176 -307 263
-647 256 -999 -4 -211 -44 -438 -110 -622 -73 -204 -229 -455 -374 -606 -184
-190 -521 -351 -810 -387 -30 -4 -58 -8 -61 -10 -3 -2 -31 -5 -63 -6 -31 -1
-59 -6 -62 -11 -3 -5 -12 -4 -19 2 -8 7 -20 8 -27 4 -7 -5 -215 -9 -463 -9
-247 -1 -449 -5 -448 -9 2 -7 683 -947 692 -956 4 -3 15 -18 27 -35 42 -61 91
-132 139 -200 132 -189 315 -452 325 -465 5 -8 36 -52 67 -97 228 -324 394
-565 399 -577 6 -16 -31 -35 -184 -92 -149 -56 -400 -124 -542 -147 -14 -3
-44 -8 -68 -12 -213 -35 -658 -42 -862 -12 -63 9 -133 19 -155 23 -146 20
-464 115 -637 190 l-68 29 0 45 c-1 53 -1 5273 0 5402 l0 86 128 50 c232 92
433 147 647 177 22 4 47 8 55 10 8 3 51 7 95 10 44 4 82 8 84 10 6 7 530 -2
576 -9z m-2037 -3016 c0 -1375 -3 -2500 -8 -2500 -8 0 -170 122 -230 173 -328
280 -625 693 -790 1097 -12 30 -28 69 -35 85 -51 120 -136 431 -161 590 -3 17
-9 55 -14 85 -20 123 -25 217 -25 465 0 231 5 335 20 455 8 61 46 252 62 315
8 33 17 71 20 85 9 49 93 289 139 396 166 389 399 723 701 1006 28 26 102 88
164 138 95 77 123 96 156 109 0 1 1 -1124 1 -2499z m3883 2133 c13 -16 12 -17
-3 -4 -10 7 -18 15 -18 17 0 8 8 3 21 -13z m79 -78 c13 -14 21 -25 18 -25 -2
0 -15 11 -28 25 -13 14 -21 25 -18 25 2 0 15 -11 28 -25z m125 -145 c10 -11
16 -20 13 -20 -3 0 -13 9 -23 20 -10 11 -16 20 -13 20 3 0 13 -9 23 -20z m36
-47 c13 -16 12 -17 -3 -4 -10 7 -18 15 -18 17 0 8 8 3 21 -13z m540 -2702 c10
-2 -55 -219 -91 -306 -110 -263 -228 -468 -388 -674 -187 -239 -441 -479 -675
-638 -56 -38 -107 -72 -113 -76 -6 -4 -25 14 -43 41 -17 26 -58 85 -91 132
-77 109 -70 98 -386 550 -149 212 -296 421 -327 465 -31 44 -61 87 -67 95 -6
8 -33 47 -60 85 -27 39 -54 77 -60 85 -24 35 -111 158 -139 197 -17 23 -26 43
-21 45 9 3 2445 2 2461 -1z"/>
</g>
</svg>
